<svg width="32" height="32" viewBox="0 0 32 32" fill="none" xmlns="http://www.w3.org/2000/svg">
<path d="M24.0006 28V8.00002H26.6673C27.4006 8.00002 28.0286 8.26135 28.5513 8.78402C29.074 9.30669 29.3349 9.93424 29.334 10.6667V25.3334C29.334 26.0667 29.0731 26.6947 28.5513 27.2174C28.0295 27.74 27.4015 28.0009 26.6673 28H24.0006ZM13.334 8.00002H18.6673V5.33335H13.334V8.00002ZM10.6673 28V5.33335C10.6673 4.60002 10.9286 3.97246 11.4513 3.45069C11.974 2.92891 12.6015 2.66758 13.334 2.66669H18.6673C19.4006 2.66669 20.0286 2.92802 20.5513 3.45069C21.074 3.97335 21.3349 4.60091 21.334 5.33335V28H10.6673ZM5.33396 28C4.60063 28 3.97308 27.7391 3.4513 27.2174C2.92952 26.6956 2.66819 26.0676 2.6673 25.3334V10.6667C2.6673 9.93335 2.92863 9.3058 3.4513 8.78402C3.97396 8.26224 4.60152 8.00091 5.33396 8.00002H8.00063V28H5.33396Z" fill="#F48712"/>
</svg>
