<svg width="32" height="32" viewBox="0 0 32 32" fill="none" xmlns="http://www.w3.org/2000/svg">
<path d="M16 2.66669C8.64796 2.66669 2.66663 8.64802 2.66663 16C2.66663 23.352 8.64796 29.3334 16 29.3334C23.352 29.3334 29.3333 23.352 29.3333 16C29.3333 8.64802 23.352 2.66669 16 2.66669ZM5.33329 16C5.33329 14.8014 5.54129 13.6507 5.90796 12.5747L7.99996 14.6667L10.6666 17.3334V20L13.3333 22.6667L14.6666 24V26.5747C9.41463 25.9147 5.33329 21.4294 5.33329 16ZM24.44 22.4974C23.5693 21.796 22.2493 21.3334 21.3333 21.3334V20C21.3333 19.2928 21.0523 18.6145 20.5522 18.1144C20.0521 17.6143 19.3739 17.3334 18.6666 17.3334H13.3333V13.3334C14.0405 13.3334 14.7188 13.0524 15.2189 12.5523C15.719 12.0522 16 11.3739 16 10.6667V9.33335H17.3333C18.0405 9.33335 18.7188 9.0524 19.2189 8.5523C19.719 8.05221 20 7.37393 20 6.66669V6.11869C23.904 7.70402 26.6666 11.5334 26.6666 16C26.6661 18.3529 25.8827 20.6387 24.44 22.4974Z" fill="#F48712"/>
</svg>
