<svg width="32" height="32" viewBox="0 0 32 32" fill="none" xmlns="http://www.w3.org/2000/svg">
<path d="M13.4867 29.0813C14.2947 29.748 15.1373 30.3573 16 30.952C16.8645 30.3652 17.7031 29.741 18.5133 29.0813C19.864 27.9723 21.1351 26.7698 22.3173 25.4826C25.0427 22.5026 28 18.1826 28 13.3333C28 11.7575 27.6896 10.197 27.0866 8.74111C26.4835 7.2852 25.5996 5.96233 24.4853 4.84803C23.371 3.73373 22.0481 2.84982 20.5922 2.24676C19.1363 1.6437 17.5759 1.33331 16 1.33331C14.4241 1.33331 12.8637 1.6437 11.4078 2.24676C9.95189 2.84982 8.62902 3.73373 7.51472 4.84803C6.40042 5.96233 5.5165 7.2852 4.91345 8.74111C4.31039 10.197 4 11.7575 4 13.3333C4 18.1826 6.95733 22.5013 9.68267 25.4826C10.8648 26.7702 12.136 27.9718 13.4867 29.0813ZM16 17.6666C14.8507 17.6666 13.7485 17.2101 12.9359 16.3974C12.1232 15.5848 11.6667 14.4826 11.6667 13.3333C11.6667 12.184 12.1232 11.0818 12.9359 10.2692C13.7485 9.45653 14.8507 8.99998 16 8.99998C17.1493 8.99998 18.2515 9.45653 19.0641 10.2692C19.8768 11.0818 20.3333 12.184 20.3333 13.3333C20.3333 14.4826 19.8768 15.5848 19.0641 16.3974C18.2515 17.2101 17.1493 17.6666 16 17.6666Z" fill="#F48712"/>
</svg>
