<svg width="10" height="14" viewBox="0 0 10 14" fill="none" xmlns="http://www.w3.org/2000/svg">
<path d="M5 6.66671C4.55797 6.66671 4.13405 6.49111 3.82149 6.17855C3.50893 5.86599 3.33334 5.44207 3.33334 5.00004C3.33334 4.55801 3.50893 4.13409 3.82149 3.82153C4.13405 3.50897 4.55797 3.33337 5 3.33337C5.44203 3.33337 5.86595 3.50897 6.17851 3.82153C6.49107 4.13409 6.66667 4.55801 6.66667 5.00004C6.66667 5.21891 6.62356 5.43564 6.5398 5.63785C6.45604 5.84006 6.33328 6.02379 6.17851 6.17855C6.02375 6.33332 5.84002 6.45608 5.63781 6.53984C5.4356 6.6236 5.21887 6.66671 5 6.66671ZM5 0.333374C3.76233 0.333374 2.57534 0.825039 1.70017 1.70021C0.825001 2.57538 0.333336 3.76236 0.333336 5.00004C0.333336 8.50004 5 13.6667 5 13.6667C5 13.6667 9.66667 8.50004 9.66667 5.00004C9.66667 3.76236 9.175 2.57538 8.29983 1.70021C7.42466 0.825039 6.23768 0.333374 5 0.333374Z" fill="white"/>
</svg>
