<svg width="166" height="34" viewBox="0 0 166 34" fill="none" xmlns="http://www.w3.org/2000/svg">
<g clip-path="url(#clip0_1_48)">
<path d="M30.5125 29.3521C29.551 28.5304 29.072 27.3815 29.072 25.9035C29.072 24.3148 29.6993 23.0959 30.9557 22.247C31.7688 21.693 32.9876 21.2685 34.6122 20.9719L38.9625 20.169C38.9438 19.3013 38.7137 18.6365 38.2704 18.1745C37.8647 17.7313 37.2545 17.5097 36.4413 17.5097C35.7953 17.5097 35.231 17.7091 34.752 18.1046C34.2713 18.5018 33.9661 19.0422 33.8383 19.7258H29.655C29.8391 18.5257 30.2687 17.5182 30.9437 16.7068C31.6171 15.8937 32.4404 15.2902 33.4087 14.8913C34.3787 14.4941 35.3981 14.2964 36.4703 14.2964C37.413 14.2964 38.2994 14.4259 39.1296 14.6851C39.9615 14.9442 40.6723 15.3311 41.2621 15.8493C41.8537 16.3659 42.2832 16.9676 42.5509 17.6495C42.8185 18.3331 42.9839 19.0303 43.0487 19.7411C43.1134 20.452 43.1458 21.3708 43.1458 22.4976V30.2556H38.9353V28.2338C38.6404 28.8987 38.2244 29.3981 37.6891 29.7305C36.8402 30.3033 35.6759 30.5897 34.198 30.5897C32.72 30.5897 31.4739 30.1789 30.5142 29.3572L30.5125 29.3521ZM37.1624 26.928C37.8647 26.5956 38.3437 26.1439 38.6029 25.5711C38.862 24.9983 39.0086 24.204 39.0461 23.188L35.7492 23.8255C35.214 23.9363 34.7929 24.0574 34.4878 24.1852C34.1826 24.3148 33.9286 24.4716 33.7258 24.6557C33.4121 24.9694 33.2553 25.3393 33.2553 25.7637C33.2553 26.282 33.4496 26.674 33.8366 26.9417C34.2235 27.2093 34.723 27.344 35.3333 27.344C35.9794 27.344 36.5896 27.2059 37.1624 26.928Z" fill="#384B40"/>
<path d="M48.2145 30.2522C47.0502 30.2522 46.1553 29.9794 45.528 29.4356C44.9006 28.8918 44.5853 28.0736 44.5853 26.9843V9.11247H48.7958V25.624C48.7958 26.4183 49.1555 26.8155 49.8766 26.8155H50.9573V30.2505H48.2145V30.2522Z" fill="#384B40"/>
<path d="M52.5092 12.6173C52.0285 12.2013 51.7898 11.6524 51.7898 10.9688C51.7898 10.2853 52.0302 9.76023 52.5092 9.33406C52.9899 8.9096 53.5712 8.69651 54.2548 8.69651C54.9383 8.69651 55.5196 8.9096 56.0004 9.33406C56.4811 9.75852 56.7197 10.304 56.7197 10.9688C56.7197 11.6337 56.4845 12.2013 56.014 12.6173C55.5435 13.0332 54.9571 13.2412 54.2548 13.2412C53.5524 13.2412 52.9899 13.0332 52.5092 12.6173ZM56.36 30.2521H52.1495V14.6271H56.36V30.2521Z" fill="#384B40"/>
<path d="M65.9992 30.2522H62.0103L57.1894 14.6271H61.6779L64.1428 24.2415L66.8021 14.6271H70.4314L73.0907 24.1852L75.6392 14.6271H80.1003L75.1687 30.2522H71.207L68.6585 20.3071L65.9992 30.2522Z" fill="#384B40"/>
<path d="M81.3198 12.6173C80.8391 12.2013 80.6004 11.6524 80.6004 10.9688C80.6004 10.2853 80.8408 9.76023 81.3198 9.33406C81.8005 8.9096 82.3818 8.69651 83.0654 8.69651C83.749 8.69651 84.3303 8.9096 84.811 9.33406C85.2917 9.75852 85.5303 10.304 85.5303 10.9688C85.5303 11.6337 85.2951 12.2013 84.8246 12.6173C84.3541 13.0332 83.7677 13.2412 83.0654 13.2412C82.3631 13.2412 81.8005 13.0332 81.3198 12.6173ZM85.1707 30.2521H80.9601V14.6271H85.1707V30.2521Z" fill="#384B40"/>
<path d="M92.1236 30.2522C90.9593 30.2522 90.0643 29.9794 89.4353 29.4356C88.808 28.8918 88.4926 28.0736 88.4926 26.9843V17.9529H86.2766V14.6288H88.4926V9.11587H92.7032V14.6288H95.5568V17.9529H92.7032V25.6274C92.7032 25.9973 92.7765 26.2871 92.9248 26.5002C93.0731 26.7133 93.368 26.8189 93.8112 26.8189H95.5295V30.2539H92.1219L92.1236 30.2522Z" fill="#384B40"/>
<path d="M97.0018 30.2522V9.11247H101.212V16.4545C101.748 15.6601 102.348 15.101 103.012 14.7788C103.677 14.4566 104.453 14.2947 105.339 14.2947C107.833 14.2947 109.485 15.1811 110.298 16.954C110.574 17.5643 110.747 18.1831 110.811 18.8104C110.876 19.4377 110.909 20.2969 110.909 21.3861V30.2522H106.725V21.3316C106.725 20.556 106.669 19.9321 106.558 19.4616C106.447 18.9911 106.263 18.616 106.004 18.3399C105.598 17.9154 104.988 17.7023 104.175 17.7023C103.122 17.7023 102.383 17.9972 101.959 18.5888C101.7 18.9024 101.511 19.3184 101.391 19.8349C101.27 20.3531 101.211 21.035 101.211 21.8856V30.2522H97H97.0018Z" fill="#384B40"/>
<path d="M124.082 30.2522C122.917 30.2522 122.023 29.9794 121.393 29.4356C120.766 28.8918 120.451 28.0736 120.451 26.9843V9.11247H124.661V25.624C124.661 26.4183 125.023 26.8155 125.742 26.8155H126.823V30.2505H124.08L124.082 30.2522Z" fill="#384B40"/>
<path d="M117.921 12.3837H119.362V9.11247H116.897C115.492 9.11247 114.411 9.46193 113.656 10.1523C112.896 10.8478 112.519 11.8212 112.519 13.0741V30.2539H116.76V17.9239H119.362V14.6271H116.76V13.6844C116.76 12.8167 117.145 12.3854 117.921 12.3854V12.3837Z" fill="#384B40"/>
<path d="M130.68 29.5583C129.451 28.8748 128.496 27.9099 127.812 26.6638C127.129 25.4177 126.788 23.9806 126.788 22.3561C126.788 20.7315 127.129 19.3917 127.812 18.1728C128.496 16.954 129.452 16.0028 130.68 15.3192C131.907 14.6356 133.315 14.2947 134.904 14.2947C136.493 14.2947 137.901 14.6356 139.13 15.3192C140.357 16.0028 141.308 16.954 141.983 18.1728C142.657 19.3917 142.994 20.7861 142.994 22.3561C142.994 23.9261 142.657 25.4177 141.983 26.6638C141.308 27.9099 140.362 28.8765 139.143 29.5583C137.925 30.2419 136.511 30.5829 134.904 30.5829C133.296 30.5829 131.907 30.2419 130.68 29.5583ZM137.619 25.6938C138.303 24.8534 138.644 23.7403 138.644 22.3561C138.644 21.0452 138.303 19.9729 137.619 19.1428C136.936 18.3126 136.031 17.8967 134.904 17.8967C133.777 17.8967 132.863 18.3075 132.161 19.1291C131.459 19.9508 131.109 21.0264 131.109 22.3561C131.109 23.6857 131.46 24.8551 132.161 25.6938C132.863 26.5342 133.777 26.9536 134.904 26.9536C136.031 26.9536 136.936 26.5342 137.619 25.6938Z" fill="#384B40"/>
<path d="M151.473 30.2522H147.484L142.663 14.6271H147.151L149.616 24.2415L152.276 14.6271H155.905L158.564 24.1852L161.113 14.6271H165.574L160.642 30.2522H156.68L154.132 20.3071L151.473 30.2522Z" fill="#384B40"/>
<path d="M25.1162 18.362C24.1462 17.3409 22.8234 16.5534 21.1903 16.0113C21.1341 15.9857 21.0642 15.9601 20.9704 15.9294C20.5545 15.8033 20.1198 15.684 19.6663 15.5834C21.4239 13.4918 23.2888 10.7063 23.2325 7.23389C23.1251 3.75635 20.5238 1.23514 16.9065 1.10899C13.3028 0.976025 10.0315 2.88526 8.40012 4.04444C8.08475 4.27117 7.76428 4.51152 7.44891 4.757C6.08858 3.41542 4.68222 2.14884 3.44121 1.02035L2.90595 0.5294L-0.00564194 3.74272L0.536445 4.23366C1.73313 5.31784 3.08835 6.54009 4.37367 7.80666C3.05084 9.42611 2.01099 11.2092 1.27287 13.0997C-0.290323 17.1074 -0.302256 21.1406 1.2473 24.7887C2.64684 27.9645 5.19192 29.8618 8.05919 29.8618C8.2109 29.8618 8.36773 29.855 8.52627 29.8498C11.6697 29.6163 14.2608 27.1905 15.2802 23.505L15.2921 23.442C15.6075 22.1123 15.7336 20.7639 15.6637 19.4274C15.8342 19.4394 15.9979 19.453 16.1683 19.4649C16.5024 19.4837 16.8366 19.5161 17.1639 19.5468C18.8583 19.7172 20.7488 20.0633 21.9711 21.3486C23.7473 23.2204 23.0603 25.237 22.6836 26.0177C21.8705 27.6815 19.8163 29.364 17.2389 29.1185L17.1639 29.1117C16.3951 29.0674 15.57 28.8526 14.7125 28.4946L11.4805 31.7216C13.3198 32.7495 15.1353 33.3291 16.8621 33.4416C17.1519 33.4672 17.4417 33.4723 17.7315 33.4723C21.4562 33.4723 24.927 31.292 26.5788 27.915C28.1914 24.6011 27.6442 21.0281 25.1162 18.362ZM11.085 22.4004C10.5685 24.2346 9.46554 25.4313 8.2109 25.5251C7.05172 25.6137 5.93686 24.6864 5.21749 23.0618C3.6543 19.3627 4.46061 14.8964 7.36027 11.0387C10.7509 15.1538 11.9356 18.7694 11.085 22.3987V22.4004ZM14.5932 14.6254C13.7238 12.4383 12.3567 10.2461 10.415 7.93963C10.5719 7.8203 10.7355 7.70097 10.9009 7.57994C12.0856 6.73613 14.4108 5.32977 16.7428 5.43716C17.3735 5.46273 18.8413 5.69628 18.8975 7.3464C18.9231 9.19939 17.3224 11.8962 14.5932 14.6237V14.6254Z" fill="#384B40"/>
</g>
<defs>
<clipPath id="clip0_1_48">
<rect width="165.58" height="32.9412" fill="white" transform="translate(0 0.529411)"/>
</clipPath>
</defs>
</svg>
