<svg width="16" height="16" viewBox="0 0 16 16" fill="none" xmlns="http://www.w3.org/2000/svg">
<path d="M8.00131 1.33362C11.6833 1.33362 14.668 4.31828 14.668 8.00028C14.668 11.6823 11.6833 14.667 8.00131 14.667C4.31931 14.667 1.33464 11.6823 1.33464 8.00028C1.33464 4.31828 4.31931 1.33362 8.00131 1.33362ZM8.00131 4.00028C7.8245 4.00028 7.65493 4.07052 7.5299 4.19555C7.40488 4.32057 7.33464 4.49014 7.33464 4.66695V8.00028C7.33468 8.17708 7.40494 8.34662 7.52997 8.47162L9.52997 10.4716C9.65571 10.5931 9.82411 10.6603 9.99891 10.6587C10.1737 10.6572 10.3409 10.5871 10.4645 10.4635C10.5881 10.3399 10.6582 10.1727 10.6598 9.99788C10.6613 9.82309 10.5941 9.65469 10.4726 9.52895L8.66797 7.72428V4.66695C8.66797 4.49014 8.59774 4.32057 8.47271 4.19555C8.34769 4.07052 8.17812 4.00028 8.00131 4.00028Z" fill="white"/>
</svg>
