<svg width="28" height="30" viewBox="0 0 28 30" fill="none" xmlns="http://www.w3.org/2000/svg">
<path d="M13.9993 0.666687C21.3633 0.666687 27.3327 6.63602 27.3327 14C27.3327 21.364 21.3633 27.3334 13.9993 27.3334C6.63535 27.3334 0.666016 21.364 0.666016 14C0.666016 6.63602 6.63535 0.666687 13.9993 0.666687ZM13.9993 6.00002C13.6457 6.00002 13.3066 6.1405 13.0565 6.39054C12.8065 6.64059 12.666 6.97973 12.666 7.33335V14C12.6661 14.3536 12.8066 14.6927 13.0567 14.9427L17.0567 18.9427C17.3082 19.1856 17.645 19.32 17.9945 19.3169C18.3441 19.3139 18.6786 19.1737 18.9258 18.9264C19.173 18.6792 19.3132 18.3448 19.3162 17.9952C19.3193 17.6456 19.1849 17.3088 18.942 17.0574L15.3327 13.448V7.33335C15.3327 6.97973 15.1922 6.64059 14.9422 6.39054C14.6921 6.1405 14.353 6.00002 13.9993 6.00002Z" fill="#F48712"/>
</svg>
