<svg width="16" height="16" viewBox="0 0 16 16" fill="none" xmlns="http://www.w3.org/2000/svg">
<path d="M12.0007 14V4.00004H13.334C13.7007 4.00004 14.0147 4.13071 14.276 4.39204C14.5373 4.65337 14.6678 4.96715 14.6673 5.33337V12.6667C14.6673 13.0334 14.5369 13.3474 14.276 13.6087C14.0151 13.87 13.7011 14.0005 13.334 14H12.0007ZM6.66732 4.00004H9.33398V2.66671H6.66732V4.00004ZM5.33398 14V2.66671C5.33398 2.30004 5.46465 1.98626 5.72598 1.72537C5.98732 1.46449 6.3011 1.33382 6.66732 1.33337H9.33398C9.70065 1.33337 10.0147 1.46404 10.276 1.72537C10.5373 1.98671 10.6678 2.30049 10.6673 2.66671V14H5.33398ZM2.66732 14C2.30065 14 1.98687 13.8696 1.72598 13.6087C1.4651 13.3478 1.33443 13.0338 1.33398 12.6667V5.33337C1.33398 4.96671 1.46465 4.65293 1.72598 4.39204C1.98732 4.13115 2.3011 4.00049 2.66732 4.00004H4.00065V14H2.66732Z" fill="white"/>
</svg>
