<svg width="32" height="32" viewBox="0 0 32 32" fill="none" xmlns="http://www.w3.org/2000/svg">
<path d="M21.3333 14.6667C23.5466 14.6667 25.32 12.88 25.32 10.6667C25.32 8.45335 23.5466 6.66669 21.3333 6.66669C19.12 6.66669 17.3333 8.45335 17.3333 10.6667C17.3333 12.88 19.12 14.6667 21.3333 14.6667ZM10.6666 14.6667C12.88 14.6667 14.6533 12.88 14.6533 10.6667C14.6533 8.45335 12.88 6.66669 10.6666 6.66669C8.45331 6.66669 6.66665 8.45335 6.66665 10.6667C6.66665 12.88 8.45331 14.6667 10.6666 14.6667ZM10.6666 17.3334C7.55998 17.3334 1.33331 18.8934 1.33331 22V25.3334H20V22C20 18.8934 13.7733 17.3334 10.6666 17.3334ZM21.3333 17.3334C20.9466 17.3334 20.5066 17.36 20.04 17.4C21.5866 18.52 22.6666 20.0267 22.6666 22V25.3334H30.6666V22C30.6666 18.8934 24.44 17.3334 21.3333 17.3334Z" fill="#F48712"/>
</svg>
