<svg width="30" height="20" viewBox="0 0 30 20" fill="none" xmlns="http://www.w3.org/2000/svg">
<path d="M20.3333 8.66669C22.5466 8.66669 24.32 6.88002 24.32 4.66669C24.32 2.45335 22.5466 0.666687 20.3333 0.666687C18.12 0.666687 16.3333 2.45335 16.3333 4.66669C16.3333 6.88002 18.12 8.66669 20.3333 8.66669ZM9.66665 8.66669C11.88 8.66669 13.6533 6.88002 13.6533 4.66669C13.6533 2.45335 11.88 0.666687 9.66665 0.666687C7.45331 0.666687 5.66665 2.45335 5.66665 4.66669C5.66665 6.88002 7.45331 8.66669 9.66665 8.66669ZM9.66665 11.3334C6.55998 11.3334 0.333313 12.8934 0.333313 16V19.3334H19V16C19 12.8934 12.7733 11.3334 9.66665 11.3334ZM20.3333 11.3334C19.9466 11.3334 19.5066 11.36 19.04 11.4C20.5866 12.52 21.6666 14.0267 21.6666 16V19.3334H29.6666V16C29.6666 12.8934 23.44 11.3334 20.3333 11.3334Z" fill="#F48712"/>
</svg>
